<?xml version="1.0" standalone="no"?>
<!DOCTYPE svg PUBLIC "-//W3C//DTD SVG 20010904//EN"
 "http://www.w3.org/TR/2001/REC-SVG-20010904/DTD/svg10.dtd">
<svg version="1.0" xmlns="http://www.w3.org/2000/svg"
 width="1000.000000pt" height="1000.000000pt" viewBox="0 0 1000.000000 1000.000000"
 preserveAspectRatio="xMidYMid meet">
<metadata>
Created by potrace 1.11, written by Peter Selinger 2001-2013
</metadata>
<g transform="translate(0.000000,1000.000000) scale(0.100000,-0.100000)"
fill="#000000" stroke="none">
<path d="M0 5000 l0 -5000 5000 0 5000 0 0 5000 0 5000 -5000 0 -5000 0 0
-5000z m3002 508 l3 -3783 2173 -3 2172 -2 0 -510 0 -510 -2755 0 -2755 0 0
4295 0 4295 580 0 580 0 2 -3782z m2498 3442 l232 -300 110 143 c60 78 164
213 231 300 l120 157 409 0 c224 0 408 -2 408 -5 0 -2 -185 -241 -411 -530
l-411 -525 -456 0 -457 1 -400 509 c-220 281 -406 519 -414 530 -13 20 -11 20
397 20 l410 0 232 -300z m535 -1205 c463 -54 858 -217 1180 -487 250 -210 421
-507 490 -852 13 -67 26 -152 30 -191 3 -38 8 -91 11 -117 l6 -48 -526 0 -525
0 -6 38 c-37 255 -121 424 -268 540 -117 93 -232 145 -417 189 -84 19 -143 25
-290 30 -283 9 -457 -21 -635 -107 -168 -81 -269 -182 -326 -327 -21 -51 -23
-75 -24 -198 0 -137 1 -141 32 -207 17 -37 53 -90 78 -117 132 -141 278 -191
1215 -416 311 -74 619 -151 686 -170 763 -222 1111 -598 1166 -1261 30 -369
-55 -706 -253 -1005 -81 -122 -299 -340 -424 -425 -291 -198 -626 -309 -1065
-355 -176 -18 -570 -16 -755 5 -435 49 -792 168 -1080 361 -435 291 -673 713
-702 1248 l-6 117 523 -2 524 -3 11 -70 c21 -119 54 -226 102 -325 39 -81 59
-108 132 -180 97 -96 164 -139 289 -186 185 -69 430 -97 722 -83 362 17 606
97 759 249 123 121 176 263 169 450 -9 211 -93 328 -313 435 -181 88 -337 133
-880 255 -480 108 -685 161 -897 230 -332 110 -515 209 -679 368 -255 245
-371 560 -371 1002 1 423 126 758 397 1057 291 322 720 510 1280 562 155 14
499 12 640 -4z"/>
</g>
</svg>
